<svg width="98" height="92" viewBox="0 0 98 92" fill="none" xmlns="http://www.w3.org/2000/svg">
<path d="M5.49532 22.3158H0V0H16.486V5.57894H5.49532V22.3158Z" fill="white"/>
<path d="M98 22.3158H92.5047V5.57894H81.514V0H98V22.3158Z" fill="white"/>
<path d="M98 90.1927H81.514V84.6138H92.5047V67.877H98V90.1927Z" fill="white"/>
<path d="M12.8224 63.2275L18.3177 52.9994V65.0871H23.8131V41.8416H19.2336L11.9065 54.8591L4.57944 41.8416H0V65.0871H5.49532V52.9994L10.9906 63.2275H12.8224Z" fill="white"/>
<path d="M43.9627 60.438H32.972V55.7889H42.1309V51.1398H32.972V46.4907H43.9627V41.8416H27.4767V65.0871H43.9627V60.438Z" fill="white"/>
<path d="M60.4486 53.9293L51.2898 41.8416H46.7103V65.0871H52.2057V52.9994L61.3645 65.0871H65.944V41.8416H60.4486V53.9293Z" fill="white"/>
<path d="M83.3459 41.842V53.9297C83.3459 55.8948 83.1031 57.7161 82.43 58.5788C81.7568 59.4415 80.8844 59.5086 79.6823 59.5086C78.4802 59.5086 76.6919 59.3936 76.0188 58.5788C75.3456 57.7161 75.1029 55.8948 75.1029 53.9297V41.842H69.6075V54.8595C69.6075 58.2625 70.6723 60.4289 72.3552 62.2981C74.0381 64.1194 76.653 65.0876 79.6823 65.0876C82.7116 65.0876 84.4106 64.1673 86.0935 62.2981C87.7765 60.4768 88.8412 58.2625 88.8412 54.8595V41.842H83.3459Z" fill="white"/>
<path d="M16.486 90.1932H0V67.8774H5.49532V84.6142H16.486V90.1932Z" fill="white"/>
<path d="M26.5607 67.8774L17.4019 91.123H22.8972L24.729 86.4739H33.8878L34.8037 91.123H41.2149L32.0561 67.8774H26.5607ZM26.5607 81.8248L29.3084 74.3862L32.0561 81.8248H26.5607Z" fill="white"/>
<path d="M57.7008 79.0353C57.5583 78.9864 57.7958 79.0842 57.7008 79.0353C58.5082 78.5459 59.0577 77.9587 59.5326 77.1757C60.1025 76.2948 60.4485 75.5607 60.4485 74.3862C60.4485 72.5755 59.8989 70.8626 58.6167 69.7371C57.287 68.6115 54.865 67.8774 52.2055 67.8774H42.1307V91.123H53.1214C55.8283 91.123 58.1554 90.3889 59.5326 89.2634C60.9573 88.1378 61.3644 86.6207 61.3644 84.6142C61.3644 83.244 61.0659 81.8248 60.4485 80.895C59.8311 79.8673 58.7931 79.5247 57.7008 79.0353ZM51.2896 72.5265C52.2394 72.5265 53.5149 73.1138 54.0373 73.4564C54.5122 73.7989 54.9532 73.6521 54.9532 74.3862C54.9532 75.1203 54.5122 75.8543 54.0373 76.2458C53.5624 76.6373 52.2869 77.1757 51.2896 77.1757H47.6261V72.5265H51.2896ZM54.9532 85.5441C54.4308 85.9356 53.2028 86.4739 52.2055 86.4739H47.6261V81.8248H52.2055C53.2028 81.8248 54.4308 81.4333 54.9532 81.8248C55.4756 82.2163 55.869 82.9014 55.869 83.6844C55.869 84.4674 55.4756 85.1526 54.9532 85.5441Z" fill="white"/>
</svg>
