<svg width="84" height="76" viewBox="0 0 84 76" fill="#fff" xmlns="http://www.w3.org/2000/svg">
    <path d="M4.88136 4.87701H14.0339V0H0V18.8171H4.88136V4.87701Z" fill="white"/>
    <path d="M69.9661 4.87701H79.1186V18.8171H84V0H69.9661V4.87701Z" fill="white"/>
    <path d="M79.1186 71.123H69.9661V76H84V57.1829H79.1186V71.123Z" fill="white"/>
    <path d="M14.0339 76H0V57.1829H4.88136V71.123H14.0339V76Z" fill="white"/>
    <path d="M22.739 57.1829L15.1323 76H20.1357L21.478 72.3553H28.8001L30.1424 76H35.2272L27.5797 57.1829H22.739ZM22.9018 68.4338L25.139 62.4123L27.3763 68.4338H22.9018Z" fill="white"/>
    <path d="M49.7898 66.2944C49.6678 66.2549 49.5458 66.2151 49.4644 66.1757C50.1559 65.7794 50.7254 65.2645 51.1322 64.6309C51.6203 63.9176 51.8237 63.0463 51.8237 62.0957C51.8237 60.6297 51.2542 59.4414 50.1559 58.5302C49.017 57.619 47.3492 57.1833 45.0712 57.1833H36.2441V76H45.6C47.9187 76 49.7085 75.5643 50.8881 74.6531C52.1085 73.742 52.7187 72.4743 52.7187 70.8503C52.7187 69.7412 52.4746 68.83 51.9458 68.0773C51.417 67.245 50.7254 66.6906 49.7898 66.2944ZM44.4203 60.9857C45.2339 60.9857 45.8441 61.1442 46.2915 61.4214C46.6983 61.6986 46.9017 62.1741 46.9017 62.7683C46.9017 63.3625 46.6983 63.838 46.2915 64.155C45.8848 64.472 45.2746 64.6305 44.4203 64.6305H41.0441V60.9857H44.4203ZM47.0644 71.6424C46.617 71.9594 46.0068 72.1179 45.1526 72.1179H41.0441V68.3151H45.1526C46.0068 68.3151 46.617 68.4736 47.0644 68.7906C47.5119 69.1076 47.7153 69.5827 47.7153 70.2167C47.7153 70.8499 47.5119 71.3254 47.0644 71.6424Z" fill="white"/>
    <path d="M15.4113 54.8724C15.0472 54.8724 14.7047 54.7891 14.3829 54.6229C14.0603 54.4587 13.7345 54.1823 13.4038 53.7958C13.3993 53.7909 13.3948 53.7844 13.3904 53.7792C13.4233 53.7653 13.4575 53.7536 13.4904 53.7397C14.6551 53.2431 15.6671 52.5441 16.5262 51.641C17.3841 50.74 18.0578 49.6768 18.5455 48.4523C19.0324 47.2273 19.2765 45.8882 19.2765 44.434C19.2765 42.9798 19.0324 41.6407 18.5455 40.4158C18.0574 39.1933 17.3841 38.1305 16.5262 37.227C15.6671 36.326 14.6551 35.6245 13.4904 35.1279C12.3258 34.6312 11.0416 34.3817 9.63824 34.3817C8.2499 34.3817 6.97058 34.6312 5.79702 35.1279C4.62468 35.6245 3.60407 36.33 2.73722 37.2404C1.87037 38.1528 1.19675 39.2156 0.717966 40.4292C0.23878 41.6452 0 42.9798 0 44.434C0 45.8882 0.23878 47.2228 0.717966 48.4384C1.19675 49.654 1.87037 50.7172 2.73722 51.6272C3.60407 52.5396 4.62468 53.2431 5.79702 53.7397C6.41898 54.0031 7.07146 54.1945 7.75322 54.3185C8.34753 54.9972 8.8979 55.5877 9.40231 56.088C10.0719 56.7509 10.7158 57.2743 11.3349 57.6613C11.9548 58.0478 12.5862 58.3286 13.2301 58.5042C13.8744 58.6793 14.568 58.7671 15.312 58.7671C17.3435 58.7671 18.9616 57.9559 20.1673 56.3355L18.037 53.5199C17.2442 54.4209 16.3688 54.8724 15.4113 54.8724ZM6.30509 48.4523C5.88366 47.9646 5.55295 47.3801 5.31417 46.6994C5.07417 46.0186 4.95539 45.2635 4.95539 44.434C4.95539 43.5866 5.07417 42.8295 5.31417 42.1552C5.55295 41.4834 5.88366 40.9035 6.30509 40.4158C6.72651 39.9281 7.22156 39.555 7.79227 39.2989C8.36176 39.0404 8.97681 38.9124 9.63824 38.9124C10.2984 38.9124 10.9135 39.0404 11.4842 39.2989C12.0537 39.555 12.5487 39.9281 12.9702 40.4158C13.3916 40.9035 13.7211 41.483 13.9611 42.1552C14.1999 42.8295 14.3211 43.5866 14.3211 44.434C14.3211 45.2631 14.2003 46.0182 13.9611 46.6994C13.7211 47.3801 13.3916 47.9646 12.9702 48.4523C12.5487 48.94 12.0537 49.313 11.4842 49.5715C10.9135 49.83 10.2984 49.958 9.63824 49.958C8.97681 49.958 8.36176 49.83 7.79227 49.5715C7.22156 49.3126 6.72651 48.9395 6.30509 48.4523Z" fill="white"/>
    <path d="M32.5814 54.0994H37.8341L34.0856 48.0133C35.1343 47.4573 35.9556 46.6839 36.5454 45.6902C37.1727 44.6319 37.4871 43.3757 37.4871 41.9215C37.4871 40.4495 37.1727 39.1729 36.5454 38.0967C35.9174 37.0201 35.0302 36.1955 33.8818 35.6249C32.7335 35.0563 31.3675 34.7686 29.7815 34.7686H21.8525V54.0994H26.7583V48.9623H29.4361L32.5814 54.0994ZM31.7759 39.8224C32.2799 40.319 32.5321 41.0201 32.5321 41.9211C32.5321 42.8043 32.2799 43.4944 31.7759 43.993C31.2719 44.4897 30.5076 44.7368 29.4841 44.7368H26.7579V39.0766H29.4841C30.5076 39.0766 31.2719 39.3257 31.7759 39.8224Z" fill="white"/>
</svg>